<?xml version="1.0" encoding="UTF-8" standalone="no"?>
<svg
   xmlns:dc="http://purl.org/dc/elements/1.1/"
   xmlns:cc="http://creativecommons.org/ns#"
   xmlns:rdf="http://www.w3.org/1999/02/22-rdf-syntax-ns#"
   xmlns:svg="http://www.w3.org/2000/svg"
   xmlns="http://www.w3.org/2000/svg"
   id="svg4934"
   version="1.1"
   viewBox="0 0 132.29167 72.93988"
   height="72.93988mm"
   width="132.29167mm">
  <defs
     id="defs4928" />
  <metadata
     id="metadata4931">
    <rdf:RDF>
      <cc:Work
         rdf:about="">
        <dc:format>image/svg+xml</dc:format>
        <dc:type
           rdf:resource="http://purl.org/dc/dcmitype/StillImage" />
        <dc:title></dc:title>
      </cc:Work>
    </rdf:RDF>
  </metadata>
  <g
     transform="translate(-36.92828,-67.49765)"
     id="layer1">
    <rect
       y="67.49765"
       x="36.92828"
       height="72.93988"
       width="132.29167"
       id="rect6107"
       style="opacity:0.9;fill:#be4d47;fill-opacity:1;stroke:none;stroke-width:0.51275843;stroke-opacity:1" />
    <rect
       y="84.481888"
       x="44.816135"
       height="15.126375"
       width="28.842663"
       id="rect852"
       style="opacity:1;fill:#ffffff;fill-opacity:1;stroke:none;stroke-width:0.51275843;stroke-opacity:1" />
    <rect
       y="84.481888"
       x="136.15123"
       height="15.126375"
       width="28.842663"
       id="rect852-3"
       style="opacity:1;fill:#ffffff;fill-opacity:1;stroke:none;stroke-width:0.51275843;stroke-opacity:1" />
    <rect
       y="106.40232"
       x="50.296238"
       height="12.690772"
       width="12.690772"
       id="rect871"
       style="opacity:1;fill:#ffffff;fill-opacity:1;stroke:none;stroke-width:0.51275843;stroke-opacity:1" />
    <rect
       style="opacity:1;fill:#ffffff;fill-opacity:1;stroke:none;stroke-width:0.51275843;stroke-opacity:1"
       id="rect873"
       width="12.690772"
       height="12.690772"
       x="146.82301"
       y="106.40232" />
    <circle
       r="30.893698"
       cy="101.5311"
       cx="104.90501"
       id="path891"
       style="opacity:1;fill:#ffffff;fill-opacity:1;stroke:none;stroke-width:0.51275843;stroke-opacity:1" />
    <path
       d="M 74.011309,101.5311 A 30.893698,30.893698 0 0 1 104.90501,70.6374 l 0,30.8937 z"
       style="opacity:0.9;fill:#d26e4e;fill-opacity:1;stroke:none;stroke-width:0.51275843;stroke-opacity:1"
       id="circle6090" />
    <g
       transform="matrix(1.9379848,0,0,1.9379848,53.100874,-175.75862)"
       id="g6086">
      <g
         transform="translate(-42.333335,41.860977)"
         id="use4762">
        <path
           transform="matrix(-0.79041508,0,0,-1.8580277,14.391648,-99.920923)"
           d="m -69.169502,-115.60927 -0.306853,-0.53149 -0.306853,-0.53148 0.613706,0 0.613705,0 -0.306852,0.53148 z"
           id="path5877"
           style="opacity:0.9;fill:#000000;fill-opacity:0.969697;stroke:none;stroke-width:0.18897234;stroke-opacity:1" />
        <path
           style="opacity:0.9;fill:#000000;fill-opacity:0.969697;stroke:none;stroke-width:0.18897234;stroke-opacity:1"
           id="path5879"
           d="m -69.169502,-115.60927 -0.306853,-0.53149 -0.306853,-0.53148 0.613706,0 0.613705,0 -0.306852,0.53148 z"
           transform="matrix(-0.79041508,0,0,1.8580277,14.391648,302.36194)" />
      </g>
      <g
         transform="rotate(90,26.967108,100.98433)"
         id="use4764">
        <path
           transform="matrix(-0.79041508,0,0,-1.8580277,14.391648,-99.920923)"
           d="m -69.169502,-115.60927 -0.306853,-0.53149 -0.306853,-0.53148 0.613706,0 0.613705,0 -0.306852,0.53148 z"
           id="path5883"
           style="opacity:0.9;fill:#000000;fill-opacity:0.969697;stroke:none;stroke-width:0.18897234;stroke-opacity:1" />
        <path
           style="opacity:0.9;fill:#000000;fill-opacity:0.969697;stroke:none;stroke-width:0.18897234;stroke-opacity:1"
           id="path5885"
           d="m -69.169502,-115.60927 -0.306853,-0.53149 -0.306853,-0.53148 0.613706,0 0.613705,0 -0.306852,0.53148 z"
           transform="matrix(-0.79041508,0,0,1.8580277,14.391648,302.36194)" />
      </g>
      <g
         transform="rotate(-90,68.828085,143.31766)"
         id="use4766">
        <path
           transform="matrix(-0.79041508,0,0,-1.8580277,14.391648,-99.920923)"
           d="m -69.169502,-115.60927 -0.306853,-0.53149 -0.306853,-0.53148 0.613706,0 0.613705,0 -0.306852,0.53148 z"
           id="path5889"
           style="opacity:0.9;fill:#000000;fill-opacity:0.969697;stroke:none;stroke-width:0.18897234;stroke-opacity:1" />
        <path
           style="opacity:0.9;fill:#000000;fill-opacity:0.969697;stroke:none;stroke-width:0.18897234;stroke-opacity:1"
           id="path5891"
           d="m -69.169502,-115.60927 -0.306853,-0.53149 -0.306853,-0.53148 0.613706,0 0.613705,0 -0.306852,0.53148 z"
           transform="matrix(-0.79041508,0,0,1.8580277,14.391648,302.36194)" />
      </g>
      <g
         transform="rotate(6,-351.47991,-281.73303)"
         id="use5519">
        <rect
           y="85.581688"
           x="68.907166"
           height="1.8520833"
           width="0.31419271"
           id="rect5733"
           style="opacity:0.9;fill:#000000;fill-opacity:0.969697;stroke:none;stroke-width:0.26458332;stroke-opacity:1" />
        <rect
           style="opacity:0.9;fill:#000000;fill-opacity:0.969697;stroke:none;stroke-width:0.26458332;stroke-opacity:1"
           id="rect5735"
           width="0.31419271"
           height="1.8520833"
           x="68.907166"
           y="115.00725" />
      </g>
      <g
         transform="rotate(12,-151.24269,-79.236369)"
         id="use5521">
        <rect
           y="85.581688"
           x="68.907166"
           height="1.8520833"
           width="0.31419271"
           id="rect5739"
           style="opacity:0.9;fill:#000000;fill-opacity:0.969697;stroke:none;stroke-width:0.26458332;stroke-opacity:1" />
        <rect
           style="opacity:0.9;fill:#000000;fill-opacity:0.969697;stroke:none;stroke-width:0.26458332;stroke-opacity:1"
           id="rect5741"
           width="0.31419271"
           height="1.8520833"
           x="68.907166"
           y="115.00725" />
      </g>
      <g
         transform="rotate(18,-84.252303,-11.490067)"
         id="use5523">
        <rect
           y="85.581688"
           x="68.907166"
           height="1.8520833"
           width="0.31419271"
           id="rect5745"
           style="opacity:0.9;fill:#000000;fill-opacity:0.969697;stroke:none;stroke-width:0.26458332;stroke-opacity:1" />
        <rect
           style="opacity:0.9;fill:#000000;fill-opacity:0.969697;stroke:none;stroke-width:0.26458332;stroke-opacity:1"
           id="rect5747"
           width="0.31419271"
           height="1.8520833"
           x="68.907166"
           y="115.00725" />
      </g>
      <g
         transform="rotate(24,-50.572608,22.569667)"
         id="use5525">
        <rect
           y="85.581688"
           x="68.907166"
           height="1.8520833"
           width="0.31419271"
           id="rect5751"
           style="opacity:0.9;fill:#000000;fill-opacity:0.969697;stroke:none;stroke-width:0.26458332;stroke-opacity:1" />
        <rect
           style="opacity:0.9;fill:#000000;fill-opacity:0.969697;stroke:none;stroke-width:0.26458332;stroke-opacity:1"
           id="rect5753"
           width="0.31419271"
           height="1.8520833"
           x="68.907166"
           y="115.00725" />
      </g>
      <g
         transform="rotate(36,-16.519823,57.0067)"
         id="use5529">
        <rect
           y="85.581688"
           x="68.907166"
           height="1.8520833"
           width="0.31419271"
           id="rect5757"
           style="opacity:0.9;fill:#000000;fill-opacity:0.969697;stroke:none;stroke-width:0.26458332;stroke-opacity:1" />
        <rect
           style="opacity:0.9;fill:#000000;fill-opacity:0.969697;stroke:none;stroke-width:0.26458332;stroke-opacity:1"
           id="rect5759"
           width="0.31419271"
           height="1.8520833"
           x="68.907166"
           y="115.00725" />
      </g>
      <g
         transform="rotate(42,-6.6281895,67.009949)"
         id="use5531">
        <rect
           y="85.581688"
           x="68.907166"
           height="1.8520833"
           width="0.31419271"
           id="rect5763"
           style="opacity:0.9;fill:#000000;fill-opacity:0.969697;stroke:none;stroke-width:0.26458332;stroke-opacity:1" />
        <rect
           style="opacity:0.9;fill:#000000;fill-opacity:0.969697;stroke:none;stroke-width:0.26458332;stroke-opacity:1"
           id="rect5765"
           width="0.31419271"
           height="1.8520833"
           x="68.907166"
           y="115.00725" />
      </g>
      <g
         transform="rotate(48,0.88695045,74.609889)"
         id="use5533">
        <rect
           y="85.581688"
           x="68.907166"
           height="1.8520833"
           width="0.31419271"
           id="rect5769"
           style="opacity:0.9;fill:#000000;fill-opacity:0.969697;stroke:none;stroke-width:0.26458332;stroke-opacity:1" />
        <rect
           style="opacity:0.9;fill:#000000;fill-opacity:0.969697;stroke:none;stroke-width:0.26458332;stroke-opacity:1"
           id="rect5771"
           width="0.31419271"
           height="1.8520833"
           x="68.907166"
           y="115.00725" />
      </g>
      <g
         transform="rotate(54,6.8191997,80.609077)"
         id="use5535">
        <rect
           y="85.581688"
           x="68.907166"
           height="1.8520833"
           width="0.31419271"
           id="rect5775"
           style="opacity:0.9;fill:#000000;fill-opacity:0.969697;stroke:none;stroke-width:0.26458332;stroke-opacity:1" />
        <rect
           style="opacity:0.9;fill:#000000;fill-opacity:0.969697;stroke:none;stroke-width:0.26458332;stroke-opacity:1"
           id="rect5777"
           width="0.31419271"
           height="1.8520833"
           x="68.907166"
           y="115.00725" />
      </g>
      <g
         transform="rotate(66,15.66747,89.557191)"
         id="use5539">
        <rect
           y="85.581688"
           x="68.907166"
           height="1.8520833"
           width="0.31419271"
           id="rect5781"
           style="opacity:0.9;fill:#000000;fill-opacity:0.969697;stroke:none;stroke-width:0.26458332;stroke-opacity:1" />
        <rect
           style="opacity:0.9;fill:#000000;fill-opacity:0.969697;stroke:none;stroke-width:0.26458332;stroke-opacity:1"
           id="rect5783"
           width="0.31419271"
           height="1.8520833"
           x="68.907166"
           y="115.00725" />
      </g>
      <g
         transform="rotate(72,19.08925,93.017581)"
         id="use5541">
        <rect
           y="85.581688"
           x="68.907166"
           height="1.8520833"
           width="0.31419271"
           id="rect5787"
           style="opacity:0.9;fill:#000000;fill-opacity:0.969697;stroke:none;stroke-width:0.26458332;stroke-opacity:1" />
        <rect
           style="opacity:0.9;fill:#000000;fill-opacity:0.969697;stroke:none;stroke-width:0.26458332;stroke-opacity:1"
           id="rect5789"
           width="0.31419271"
           height="1.8520833"
           x="68.907166"
           y="115.00725" />
      </g>
      <g
         transform="rotate(78,22.050595,96.012342)"
         id="use5543">
        <rect
           y="85.581688"
           x="68.907166"
           height="1.8520833"
           width="0.31419271"
           id="rect5793"
           style="opacity:0.9;fill:#000000;fill-opacity:0.969697;stroke:none;stroke-width:0.26458332;stroke-opacity:1" />
        <rect
           style="opacity:0.9;fill:#000000;fill-opacity:0.969697;stroke:none;stroke-width:0.26458332;stroke-opacity:1"
           id="rect5795"
           width="0.31419271"
           height="1.8520833"
           x="68.907166"
           y="115.00725" />
      </g>
      <g
         transform="rotate(84,24.651934,98.643033)"
         id="use5545">
        <rect
           y="85.581688"
           x="68.907166"
           height="1.8520833"
           width="0.31419271"
           id="rect5799"
           style="opacity:0.9;fill:#000000;fill-opacity:0.969697;stroke:none;stroke-width:0.26458332;stroke-opacity:1" />
        <rect
           style="opacity:0.9;fill:#000000;fill-opacity:0.969697;stroke:none;stroke-width:0.26458332;stroke-opacity:1"
           id="rect5801"
           width="0.31419271"
           height="1.8520833"
           x="68.907166"
           y="115.00725" />
      </g>
      <g
         transform="rotate(96,29.051699,103.09245)"
         id="use5549">
        <rect
           y="85.581688"
           x="68.907166"
           height="1.8520833"
           width="0.31419271"
           id="rect5805"
           style="opacity:0.9;fill:#000000;fill-opacity:0.969697;stroke:none;stroke-width:0.26458332;stroke-opacity:1" />
        <rect
           style="opacity:0.9;fill:#000000;fill-opacity:0.969697;stroke:none;stroke-width:0.26458332;stroke-opacity:1"
           id="rect5807"
           width="0.31419271"
           height="1.8520833"
           x="68.907166"
           y="115.00725" />
      </g>
      <g
         transform="rotate(102,30.948421,105.01057)"
         id="use5551">
        <rect
           y="85.581688"
           x="68.907166"
           height="1.8520833"
           width="0.31419271"
           id="rect5811"
           style="opacity:0.9;fill:#000000;fill-opacity:0.969697;stroke:none;stroke-width:0.26458332;stroke-opacity:1" />
        <rect
           style="opacity:0.9;fill:#000000;fill-opacity:0.969697;stroke:none;stroke-width:0.26458332;stroke-opacity:1"
           id="rect5813"
           width="0.31419271"
           height="1.8520833"
           x="68.907166"
           y="115.00725" />
      </g>
      <g
         transform="rotate(108,32.690706,106.77251)"
         id="use5553">
        <rect
           y="85.581688"
           x="68.907166"
           height="1.8520833"
           width="0.31419271"
           id="rect5817"
           style="opacity:0.9;fill:#000000;fill-opacity:0.969697;stroke:none;stroke-width:0.26458332;stroke-opacity:1" />
        <rect
           style="opacity:0.9;fill:#000000;fill-opacity:0.969697;stroke:none;stroke-width:0.26458332;stroke-opacity:1"
           id="rect5819"
           width="0.31419271"
           height="1.8520833"
           x="68.907166"
           y="115.00725" />
      </g>
      <g
         transform="rotate(114,34.305178,108.4052)"
         id="use5555">
        <rect
           y="85.581688"
           x="68.907166"
           height="1.8520833"
           width="0.31419271"
           id="rect5823"
           style="opacity:0.9;fill:#000000;fill-opacity:0.969697;stroke:none;stroke-width:0.26458332;stroke-opacity:1" />
        <rect
           style="opacity:0.9;fill:#000000;fill-opacity:0.969697;stroke:none;stroke-width:0.26458332;stroke-opacity:1"
           id="rect5825"
           width="0.31419271"
           height="1.8520833"
           x="68.907166"
           y="115.00725" />
      </g>
      <g
         transform="rotate(126,37.232979,111.36604)"
         id="use5559">
        <rect
           y="85.581688"
           x="68.907166"
           height="1.8520833"
           width="0.31419271"
           id="rect5829"
           style="opacity:0.9;fill:#000000;fill-opacity:0.969697;stroke:none;stroke-width:0.26458332;stroke-opacity:1" />
        <rect
           style="opacity:0.9;fill:#000000;fill-opacity:0.969697;stroke:none;stroke-width:0.26458332;stroke-opacity:1"
           id="rect5831"
           width="0.31419271"
           height="1.8520833"
           x="68.907166"
           y="115.00725" />
      </g>
      <g
         transform="rotate(132,38.578741,112.72699)"
         id="use5561">
        <rect
           y="85.581688"
           x="68.907166"
           height="1.8520833"
           width="0.31419271"
           id="rect5835"
           style="opacity:0.9;fill:#000000;fill-opacity:0.969697;stroke:none;stroke-width:0.26458332;stroke-opacity:1" />
        <rect
           style="opacity:0.9;fill:#000000;fill-opacity:0.969697;stroke:none;stroke-width:0.26458332;stroke-opacity:1"
           id="rect5837"
           width="0.31419271"
           height="1.8520833"
           x="68.907166"
           y="115.00725" />
      </g>
      <g
         transform="rotate(138,39.863134,114.02588)"
         id="use5563">
        <rect
           y="85.581688"
           x="68.907166"
           height="1.8520833"
           width="0.31419271"
           id="rect5841"
           style="opacity:0.9;fill:#000000;fill-opacity:0.969697;stroke:none;stroke-width:0.26458332;stroke-opacity:1" />
        <rect
           style="opacity:0.9;fill:#000000;fill-opacity:0.969697;stroke:none;stroke-width:0.26458332;stroke-opacity:1"
           id="rect5843"
           width="0.31419271"
           height="1.8520833"
           x="68.907166"
           y="115.00725" />
      </g>
      <g
         transform="rotate(144,41.096867,115.27353)"
         id="use5565">
        <rect
           y="85.581688"
           x="68.907166"
           height="1.8520833"
           width="0.31419271"
           id="rect5847"
           style="opacity:0.9;fill:#000000;fill-opacity:0.969697;stroke:none;stroke-width:0.26458332;stroke-opacity:1" />
        <rect
           style="opacity:0.9;fill:#000000;fill-opacity:0.969697;stroke:none;stroke-width:0.26458332;stroke-opacity:1"
           id="rect5849"
           width="0.31419271"
           height="1.8520833"
           x="68.907166"
           y="115.00725" />
      </g>
      <g
         transform="rotate(156,43.448683,117.65188)"
         id="use5569">
        <rect
           y="85.581688"
           x="68.907166"
           height="1.8520833"
           width="0.31419271"
           id="rect5853"
           style="opacity:0.9;fill:#000000;fill-opacity:0.969697;stroke:none;stroke-width:0.26458332;stroke-opacity:1" />
        <rect
           style="opacity:0.9;fill:#000000;fill-opacity:0.969697;stroke:none;stroke-width:0.26458332;stroke-opacity:1"
           id="rect5855"
           width="0.31419271"
           height="1.8520833"
           x="68.907166"
           y="115.00725" />
      </g>
      <g
         transform="rotate(162,44.582531,118.79853)"
         id="use5571">
        <rect
           y="85.581688"
           x="68.907166"
           height="1.8520833"
           width="0.31419271"
           id="rect5859"
           style="opacity:0.9;fill:#000000;fill-opacity:0.969697;stroke:none;stroke-width:0.26458332;stroke-opacity:1" />
        <rect
           style="opacity:0.9;fill:#000000;fill-opacity:0.969697;stroke:none;stroke-width:0.26458332;stroke-opacity:1"
           id="rect5861"
           width="0.31419271"
           height="1.8520833"
           x="68.907166"
           y="115.00725" />
      </g>
      <g
         transform="rotate(168,45.697712,119.92629)"
         id="use5573">
        <rect
           y="85.581688"
           x="68.907166"
           height="1.8520833"
           width="0.31419271"
           id="rect5865"
           style="opacity:0.9;fill:#000000;fill-opacity:0.969697;stroke:none;stroke-width:0.26458332;stroke-opacity:1" />
        <rect
           style="opacity:0.9;fill:#000000;fill-opacity:0.969697;stroke:none;stroke-width:0.26458332;stroke-opacity:1"
           id="rect5867"
           width="0.31419271"
           height="1.8520833"
           x="68.907166"
           y="115.00725" />
      </g>
      <g
         transform="rotate(174,46.800675,121.0417)"
         id="use5575">
        <rect
           y="85.581688"
           x="68.907166"
           height="1.8520833"
           width="0.31419271"
           id="rect5871"
           style="opacity:0.9;fill:#000000;fill-opacity:0.969697;stroke:none;stroke-width:0.26458332;stroke-opacity:1" />
        <rect
           style="opacity:0.9;fill:#000000;fill-opacity:0.969697;stroke:none;stroke-width:0.26458332;stroke-opacity:1"
           id="rect5873"
           width="0.31419271"
           height="1.8520833"
           x="68.907166"
           y="115.00725" />
      </g>
      <g
         transform="rotate(30,-30.216052,43.155925)"
         id="use5619">
        <circle
           r="0.72634202"
           cy="86.308029"
           cx="69.064262"
           id="circle5709"
           style="opacity:0.9;fill:#000000;fill-opacity:0.969697;stroke:none;stroke-width:0.26458332;stroke-opacity:1" />
        <circle
           style="opacity:0.9;fill:#000000;fill-opacity:0.969697;stroke:none;stroke-width:0.26458332;stroke-opacity:1"
           id="circle5711"
           cx="69.064262"
           cy="116.13299"
           r="0.72634202" />
      </g>
      <g
         transform="rotate(60,11.644925,85.489257)"
         id="use5621">
        <circle
           r="0.72634202"
           cy="86.308029"
           cx="69.064262"
           id="circle5715"
           style="opacity:0.9;fill:#000000;fill-opacity:0.969697;stroke:none;stroke-width:0.26458332;stroke-opacity:1" />
        <circle
           style="opacity:0.9;fill:#000000;fill-opacity:0.969697;stroke:none;stroke-width:0.26458332;stroke-opacity:1"
           id="circle5717"
           cx="69.064262"
           cy="116.13299"
           r="0.72634202" />
      </g>
      <g
         transform="rotate(120,35.813371,109.93042)"
         id="use5625">
        <circle
           r="0.72634202"
           cy="86.308029"
           cx="69.064262"
           id="circle5721"
           style="opacity:0.9;fill:#000000;fill-opacity:0.969697;stroke:none;stroke-width:0.26458332;stroke-opacity:1" />
        <circle
           style="opacity:0.9;fill:#000000;fill-opacity:0.969697;stroke:none;stroke-width:0.26458332;stroke-opacity:1"
           id="circle5723"
           cx="69.064262"
           cy="116.13299"
           r="0.72634202" />
      </g>
      <g
         transform="rotate(150,42.289287,116.47941)"
         id="use5627">
        <circle
           r="0.72634202"
           cy="86.308029"
           cx="69.064262"
           id="circle5727"
           style="opacity:0.9;fill:#000000;fill-opacity:0.969697;stroke:none;stroke-width:0.26458332;stroke-opacity:1" />
        <circle
           style="opacity:0.9;fill:#000000;fill-opacity:0.969697;stroke:none;stroke-width:0.26458332;stroke-opacity:1"
           id="circle5729"
           cx="69.064262"
           cy="116.13299"
           r="0.72634202" />
      </g>
    </g>
    <g
       id="text926"
       style="font-style:normal;font-variant:normal;font-weight:normal;font-stretch:normal;font-size:7.76111174px;line-height:1.25;font-family:Designer;-inkscape-font-specification:Designer;letter-spacing:0px;word-spacing:0px;fill:#000000;fill-opacity:1;stroke:none;stroke-width:0.26458332"
       aria-label="FCW"
       transform="matrix(1.9379848,0,0,1.9379848,-28.764706,-94.480906)">
      <path
         id="path4789"
         style="font-style:normal;font-variant:normal;font-weight:normal;font-stretch:normal;font-size:7.76111174px;font-family:'Swiss911 UCm BT';-inkscape-font-specification:'Swiss911 UCm BT';letter-spacing:0.5291667px;stroke-width:0.26458332"
         d="m 41.005078,99.036545 v -5.589668 h 1.841748 v 0.761711 h -1.011825 v 1.405943 h 0.989087 v 0.735184 h -0.989087 v 2.68683 z" />
      <path
         id="path4791"
         style="font-style:normal;font-variant:normal;font-weight:normal;font-stretch:normal;font-size:7.76111174px;font-family:'Swiss911 UCm BT';-inkscape-font-specification:'Swiss911 UCm BT';letter-spacing:0.5291667px;stroke-width:0.26458332"
         d="m 44.850149,94.333645 q 0,-0.185691 -0.05684,-0.257694 -0.05305,-0.07579 -0.181901,-0.07579 -0.128847,0 -0.185691,0.07579 -0.05684,0.072 -0.05684,0.257694 v 3.785815 q 0,0.189481 0.05684,0.265273 0.05684,0.07579 0.185691,0.07579 0.128846,0 0.181901,-0.07579 0.05684,-0.07579 0.05684,-0.265273 v -1.254359 h 0.837503 v 1.224042 q 0,0.526756 -0.272852,0.799607 -0.272851,0.272852 -0.803396,0.272852 -0.534335,0 -0.807186,-0.272852 -0.272852,-0.272851 -0.272852,-0.799607 v -3.687286 q 0,-0.526755 0.272852,-0.795817 0.272851,-0.272851 0.807186,-0.272851 0.530545,0 0.803396,0.272851 0.272852,0.269062 0.272852,0.795817 v 1.110355 h -0.837503 z" />
      <path
         id="path4793"
         style="font-style:normal;font-variant:normal;font-weight:normal;font-stretch:normal;font-size:7.76111174px;font-family:'Swiss911 UCm BT';-inkscape-font-specification:'Swiss911 UCm BT';letter-spacing:0.5291667px;stroke-width:0.26458332"
         d="m 46.724626,99.036545 q -0.01137,-0.38275 -0.04926,-0.894347 -0.03411,-0.515386 -0.09853,-1.254359 L 46.25093,93.446877 h 0.822344 l 0.155374,1.981964 q 0.02653,0.405487 0.04926,0.943611 0.02653,0.538124 0.04548,1.197516 h 0.04926 q 0.03032,-0.833714 0.05306,-1.368048 0.02274,-0.534334 0.03411,-0.632864 l 0.200849,-2.122179 h 0.901926 l 0.170532,2.243446 q 0.01516,0.185691 0.02653,0.701077 0.01516,0.511597 0.02274,1.178568 h 0.04926 q 0.03032,-0.860241 0.05684,-1.341521 0.02653,-0.485069 0.06063,-0.799606 l 0.204639,-1.981964 h 0.659391 l -0.545703,5.589668 h -0.913295 l -0.250114,-3.36138 q -0.01137,-0.18948 -0.01895,-0.363802 -0.0038,-0.178112 -0.0038,-0.348644 v -0.227376 h -0.0379 q -0.0379,0.66697 -0.125057,1.800062 -0.08337,1.133092 -0.200849,2.50114 z" />
    </g>
    <g
       id="text926-3"
       style="font-style:normal;font-variant:normal;font-weight:normal;font-stretch:normal;font-size:7.76111174px;line-height:1.25;font-family:Designer;-inkscape-font-specification:Designer;letter-spacing:0px;word-spacing:0px;fill:#000000;fill-opacity:1;stroke:none;stroke-width:0.26458332"
       aria-label="GAST"
       transform="matrix(1.9379848,0,0,1.9379848,-28.764706,-94.480906)">
      <path
         id="path4796"
         style="font-style:normal;font-variant:normal;font-weight:normal;font-stretch:normal;font-size:7.76111174px;font-family:'Swiss911 UCm BT';-inkscape-font-specification:'Swiss911 UCm BT';letter-spacing:0.52916676px;stroke-width:0.26458332"
         d="m 88.178247,94.326061 q 0,-0.181901 -0.05684,-0.257693 -0.05684,-0.07579 -0.18948,-0.07579 -0.128847,0 -0.185691,0.07579 -0.05684,0.072 -0.05684,0.257693 v 3.785816 q 0,0.18948 0.05684,0.265272 0.05684,0.07579 0.185691,0.07579 0.128846,0 0.18569,-0.07579 0.06063,-0.07958 0.06063,-0.265272 v -1.224043 h -0.356223 v -0.693498 h 1.189936 v 2.834625 h -0.435805 l -0.04547,-0.341064 h -0.02653 q -0.128847,0.238745 -0.322117,0.360012 -0.193269,0.121268 -0.450963,0.121268 -0.435804,0 -0.659391,-0.280431 -0.219797,-0.280431 -0.219797,-0.829924 v -3.664548 q 0,-0.526755 0.272852,-0.795817 0.276641,-0.272852 0.807186,-0.272852 0.530544,0 0.803396,0.272852 0.276641,0.269062 0.276641,0.795817 v 1.110354 h -0.833713 z" />
      <path
         id="path4798"
         style="font-style:normal;font-variant:normal;font-weight:normal;font-stretch:normal;font-size:7.76111174px;font-family:'Swiss911 UCm BT';-inkscape-font-specification:'Swiss911 UCm BT';letter-spacing:0.52916676px;stroke-width:0.26458332"
         d="m 89.848085,99.028961 0.66697,-5.589668 h 1.265729 l 0.606337,5.589668 h -0.848872 l -0.170532,-1.504473 h -0.519176 l -0.178112,1.504473 z m 1.072458,-2.228288 h 0.38654 l -0.08716,-1.390785 q -0.0076,-0.181901 -0.02653,-0.424436 -0.01516,-0.242534 -0.05684,-0.704866 h -0.0379 q -0.01137,0.121267 -0.04169,0.602547 -0.02274,0.333485 -0.0379,0.538124 z" />
      <path
         id="path4800"
         style="font-style:normal;font-variant:normal;font-weight:normal;font-stretch:normal;font-size:7.76111174px;font-family:'Swiss911 UCm BT';-inkscape-font-specification:'Swiss911 UCm BT';letter-spacing:0.52916676px;stroke-width:0.26458332"
         d="m 93.185349,94.394274 q 0,-0.526755 0.269062,-0.795817 0.272851,-0.272852 0.799607,-0.272852 0.534334,0 0.807186,0.272852 0.272851,0.269062 0.272851,0.795817 v 1.110354 h -0.829923 v -1.178567 q 0,-0.181901 -0.06063,-0.257693 -0.05684,-0.07579 -0.18948,-0.07579 -0.128847,0 -0.185691,0.07579 -0.05306,0.072 -0.05306,0.257693 v 0.401698 q 0,0.208428 0.02653,0.333485 0.02653,0.125057 0.08337,0.204639 l 0.905716,1.239201 q 0.170532,0.234956 0.234955,0.424436 0.06821,0.18948 0.06821,0.416856 v 0.735184 q 0,0.526755 -0.272851,0.799607 -0.272852,0.272851 -0.807186,0.272851 -0.526756,0 -0.799607,-0.269062 -0.269062,-0.272851 -0.269062,-0.803396 v -1.224043 h 0.829923 v 1.25436 q 0,0.18948 0.05306,0.265272 0.05684,0.07579 0.185691,0.07579 0.132636,0 0.18948,-0.07579 0.06063,-0.07958 0.06063,-0.265272 v -0.57981 q 0,-0.113688 -0.03411,-0.219797 -0.03411,-0.106109 -0.106109,-0.208428 L 93.41651,95.785059 q -0.121268,-0.170532 -0.178112,-0.352433 -0.05305,-0.181901 -0.05305,-0.432015 z" />
      <path
         id="path4802"
         style="font-style:normal;font-variant:normal;font-weight:normal;font-stretch:normal;font-size:7.76111174px;font-family:'Swiss911 UCm BT';-inkscape-font-specification:'Swiss911 UCm BT';letter-spacing:0.52916676px;stroke-width:0.26458332"
         d="m 97.504121,99.028961 h -0.833714 v -4.865853 h -0.720025 v -0.723815 h 2.273764 v 0.723815 h -0.720025 z" />
    </g>
    <g
       transform="matrix(1.9379848,0,0,1.9379848,-196.85678,-35.975794)"
       id="g4711">
      <path
         style="fill:#000000;stroke-width:0.00680438"
         d="m 143.97225,72.510797 v -0.49069 h -0.71207 -0.71206 v -0.40893 -0.40893 l 0.58882,-0.97549 0.58884,-0.975461 0.43968,-1.15e-4 0.43972,-1.54e-4 v 1.04603 1.04603 h 0.1246 0.12492 v 0.33843 0.33844 h -0.12492 -0.1246 v 0.49069 0.49069 h -0.31647 -0.31646 z m 0,-1.81439 v -0.64664 l -0.0215,2.7e-4 -0.0215,3.1e-4 -0.22644,0.39331 c -0.12461,0.21652 -0.29229,0.50719 -0.3725,0.6463 l -0.14614,0.25305 h 0.39533 0.39532 z m 1.30848,1.97034 v -0.33459 h 0.60557 0.60556 v -0.46408 -0.46403 h -0.60558 -0.60558 l 0.002,-1.07457 0.002,-1.074566 0.8414,-0.0019 0.84138,-0.0019 v 0.331136 0.33112 h -0.52341 -0.5234 v 0.41055 0.41054 l 0.49147,0.002 c 0.48968,0.002 0.49159,0.002 0.53128,0.0192 0.0763,0.0308 0.13784,0.10384 0.16399,0.19075 0.0123,0.0392 0.0123,0.0596 0.0123,0.94135 0,0.86558 -4.3e-4,0.90262 -0.0123,0.939 -0.0185,0.0573 -0.0505,0.10884 -0.0852,0.1323 -0.0643,0.0438 -0.0409,0.0427 -0.92709,0.0427 l -0.81403,1.2e-4 z"
         id="path4648" />
      <path
         style="fill:#000000;stroke-width:0.00680841"
         d="m 153.85037,83.424942 v -0.33517 h 0.59374 0.59372 v -0.46435 -0.46431 h -0.39885 -0.39888 V 81.826325 81.49154 h 0.39888 0.39885 v -0.411055 -0.411017 h -0.59378 -0.59381 l 0.002,-0.329398 0.002,-0.329399 0.763,-0.002 c 0.64889,-0.0016 0.76934,-2.7e-4 0.80555,0.0077 0.12406,0.03078 0.22195,0.148537 0.24627,0.291302 0.0123,0.07773 0.0123,1.044885 -1.2e-4,1.108225 -0.0123,0.06003 -0.0277,0.09159 -0.068,0.15354 -0.0431,0.06388 -0.10251,0.1216 -0.1724,0.167008 -0.0308,0.01924 -0.048,0.03463 -0.0425,0.03848 0.11452,0.04387 0.19456,0.113136 0.24875,0.215106 0.0422,0.0797 0.04,0.0423 0.0422,0.77524 0.002,0.44689 -3.5e-4,0.67446 -0.006,0.70082 -0.009,0.0543 -0.0373,0.12545 -0.065,0.16393 -0.0311,0.0431 -0.0862,0.087 -0.13545,0.10814 l -0.04,0.0154 -0.79012,0.002 -0.79013,0.002 v -0.33517 z m 2.57533,0.32016 c -0.0782,-0.0308 -0.16408,-0.1316 -0.2081,-0.2432 l -0.0246,-0.065 v -1.587689 -1.587661 l 0.0123,-0.03848 c 0.0185,-0.0481 0.0806,-0.125064 0.12683,-0.155464 0.0215,-0.01154 0.0585,-0.03078 0.0853,-0.04156 l 0.0483,-0.01924 h 0.79776 0.79773 l 0.0425,0.01539 c 0.0883,0.03463 0.16039,0.108132 0.19579,0.198178 l 0.0185,0.04387 0.002,1.577656 c 0.002,1.55944 0.002,1.57811 -0.009,1.62082 -0.0308,0.10621 -0.10529,0.21588 -0.18009,0.26206 l -0.0418,0.0269 -0.81312,0.002 c -0.76815,0.001 -0.81497,8.5e-4 -0.84717,-0.0115 z m 1.26114,-1.86194 v -1.214117 h -0.43238 -0.43237 v 1.214117 1.21408 h 0.43237 0.43238 z"
         id="path4648-3" />
      <path
         style="fill:#000000;stroke-width:0.0068041"
         d="m 165.82614,71.267539 v -1.544268 h -0.1606 -0.16059 l 0.0665,-0.268044 c 0.0366,-0.147674 0.0732,-0.296502 0.0818,-0.331113 l 0.0154,-0.06268 h 0.40127 0.40131 v 1.875185 1.8752 h -0.32255 -0.32254 z m 1.20499,1.20955 v -0.33458 h 0.60552 0.60553 v -0.46402 -0.46406 h -0.60555 -0.60556 l 0.002,-1.074517 0.002,-1.074522 0.84137,-0.0019 0.84134,-0.0019 v 0.331113 0.331114 h -0.52338 -0.52335 v 0.410526 0.410565 l 0.49142,0.0022 c 0.48966,0.0022 0.49157,0.0023 0.53126,0.01923 0.0763,0.03077 0.13782,0.103833 0.16397,0.190741 0.0123,0.0392 0.0123,0.06 0.0123,0.94135 0,0.86554 -4.2e-4,0.90254 -0.0123,0.93896 -0.0185,0.0573 -0.0505,0.10883 -0.0852,0.13229 -0.0643,0.0438 -0.041,0.0427 -0.92706,0.0427 l -0.81399,1.5e-4 z"
         id="path4648-7" />
      <path
         style="fill:#000000;stroke-width:0.00681598"
         d="m 154.95451,61.888252 c -0.0782,-0.0314 -0.1642,-0.131913 -0.20838,-0.243365 l -0.0257,-0.06497 v -1.589451 -1.589449 l 0.0136,-0.03669 c 0.0177,-0.04803 0.0806,-0.125065 0.12688,-0.155469 0.0202,-0.01328 0.0586,-0.03208 0.0853,-0.04174 l 0.0486,-0.01757 h 0.79863 0.79863 l 0.0427,0.0169 c 0.0884,0.03502 0.1607,0.108121 0.19616,0.198379 l 0.0173,0.04381 0.002,1.579388 c 0.002,1.561209 0.002,1.579886 -0.0106,1.622651 -0.0299,0.106524 -0.10528,0.2161 -0.18033,0.262281 l -0.042,0.02587 -0.814,0.0016 c -0.76903,0.0015 -0.81589,8.44e-4 -0.84812,-0.01214 z m 1.26254,-1.864063 v -1.21547 h -0.43285 -0.43284 v 1.21547 1.215471 h 0.43284 0.43285 z"
         id="path4648-6-3" />
    </g>
  </g>
</svg>
